# xmcd
#
# Track frame offsets: 
#        150
#        14130
#        27392
#        42925
#        57867
#        80012
#        92614
#        114196
#        127171
#        143095
#
# Disc length: 2216 seconds
#
# Revision: 0
# Processed by: cddbd v1.5.2PL0 Copyright (c) Steve Scherf et al.
# Submitted via: ExactAudioCopy v0.99pb4
#
DISCID=8508a60a
DTITLE=Tim Emery - Alias Redd Garrett
DYEAR=1979
DGENRE=Country
TTITLE0=Midnight Rocker
TTITLE1=For Fooling With You Baby
TTITLE2=When They're Saying Good-Bye
TTITLE3=Long Way Undecided
TTITLE4=The Moon
TTITLE5=Ice Age
TTITLE6=When Your High
TTITLE7=Good Years Gone
TTITLE8=Rambling In My Blood
TTITLE9=My Friends And Me
EXTD=
EXTT0=
EXTT1=
EXTT2=
EXTT3=
EXTT4=
EXTT5=
EXTT6=
EXTT7=
EXTT8=
EXTT9=
PLAYORDER=
